<svg version="1.1" xmlns="http://www.w3.org/2000/svg" xmlns:xlink="http://www.w3.org/1999/xlink" width="263.5" height="263.5" viewBox="0,0,263.5,263.5"><defs><linearGradient x1="236.93605" y1="48.25" x2="236.93605" y2="181.94979" gradientUnits="userSpaceOnUse" id="color-1"><stop offset="0" stop-color="#ffffff" stop-opacity="0"/><stop offset="1" stop-color="#ffffff"/></linearGradient><linearGradient x1="243.06395" y1="311.75" x2="243.06395" y2="178.05021" gradientUnits="userSpaceOnUse" id="color-2"><stop offset="0" stop-color="#ffffff" stop-opacity="0"/><stop offset="1" stop-color="#ffffff"/></linearGradient><linearGradient x1="371.75" y1="176.93605" x2="238.05021" y2="176.93605" gradientUnits="userSpaceOnUse" id="color-3"><stop offset="0" stop-color="#ffffff" stop-opacity="0"/><stop offset="1" stop-color="#ffffff"/></linearGradient><linearGradient x1="108.25" y1="183.06395" x2="241.94979" y2="183.06395" gradientUnits="userSpaceOnUse" id="color-4"><stop offset="0" stop-color="#ffffff" stop-opacity="0"/><stop offset="1" stop-color="#ffffff"/></linearGradient><linearGradient x1="330.99478" y1="84.67214" x2="236.45475" y2="179.21217" gradientUnits="userSpaceOnUse" id="color-5"><stop offset="0" stop-color="#ffffff" stop-opacity="0"/><stop offset="1" stop-color="#ffffff"/></linearGradient><linearGradient x1="149.00522" y1="275.32786" x2="243.54525" y2="180.78784" gradientUnits="userSpaceOnUse" id="color-6"><stop offset="0" stop-color="#ffffff" stop-opacity="0"/><stop offset="1" stop-color="#ffffff"/></linearGradient><linearGradient x1="335.32786" y1="270.99478" x2="240.78784" y2="176.45475" gradientUnits="userSpaceOnUse" id="color-7"><stop offset="0" stop-color="#ffffff" stop-opacity="0"/><stop offset="1" stop-color="#ffffff"/></linearGradient><linearGradient x1="144.67214" y1="89.00523" x2="239.21217" y2="183.54525" gradientUnits="userSpaceOnUse" id="color-8"><stop offset="0" stop-color="#ffffff" stop-opacity="0"/><stop offset="1" stop-color="#ffffff"/></linearGradient><radialGradient cx="240" cy="180" r="106.64606" gradientUnits="userSpaceOnUse" id="color-9"><stop offset="0" stop-color="#ffffff"/><stop offset="1" stop-color="#ffffff" stop-opacity="0"/></radialGradient></defs><g transform="translate(-108.25,-48.25)"><g data-paper-data="{&quot;isPaintingLayer&quot;:true}" fill-rule="nonzero" stroke-width="0" stroke-linecap="butt" stroke-linejoin="miter" stroke-miterlimit="10" stroke-dasharray="" stroke-dashoffset="0" style="mix-blend-mode: normal"><path d="M240.24684,181.94979l-43.91149,-133.69979h81.2014z" fill="url(#color-1)" stroke="#000000"/><path d="M239.75317,178.05021l43.91149,133.69979h-81.2014z" fill="url(#color-2)" stroke="#000000"/><path d="M238.05021,180.24684l133.69979,-43.91149v81.2014z" fill="url(#color-3)" stroke="#000000"/><path d="M241.94979,179.75317l-133.69979,43.91149v-81.2014z" fill="url(#color-4)" stroke="#000000"/><path d="M238.79583,181.55326l63.48992,-125.59014l57.41805,57.41806z" fill="url(#color-5)" stroke="#000000"/><path d="M241.20417,178.44675l-63.48992,125.59014l-57.41805,-57.41805z" fill="url(#color-6)" stroke="#000000"/><path d="M238.44675,178.79583l125.59014,63.48992l-57.41805,57.41805z" fill="url(#color-7)" stroke="#000000"/><path d="M241.55326,181.20417l-125.59014,-63.48992l57.41805,-57.41805z" fill="url(#color-8)" stroke="#000000"/><path d="M343.89588,180c0,58.89899 -46.51577,106.64606 -103.89588,106.64606c-57.38011,0 -103.89588,-47.74707 -103.89588,-106.64606c0,-58.89899 46.51577,-106.64606 103.89588,-106.64606c57.38011,0 103.89588,47.74707 103.89588,106.64606z" fill="url(#color-9)" stroke="none"/></g></g></svg>