<svg version="1.1" xmlns="http://www.w3.org/2000/svg" xmlns:xlink="http://www.w3.org/1999/xlink" width="143.23157" height="43.17248" viewBox="0,0,143.23157,43.17248"><defs><radialGradient cx="211.94622" cy="189.31697" r="6.44974" gradientUnits="userSpaceOnUse" id="color-1"><stop offset="0" stop-color="#ffb44a"/><stop offset="1" stop-color="#e5a142"/></radialGradient><radialGradient cx="207.24107" cy="189.08347" r="0.86243" gradientUnits="userSpaceOnUse" id="color-2"><stop offset="0" stop-color="#805a25"/><stop offset="1" stop-color="#65481d"/></radialGradient><radialGradient cx="209.24443" cy="185.33458" r="0.79324" gradientUnits="userSpaceOnUse" id="color-3"><stop offset="0" stop-color="#805a25"/><stop offset="1" stop-color="#65481d"/></radialGradient><radialGradient cx="214.20343" cy="185.6266" r="1.08388" gradientUnits="userSpaceOnUse" id="color-4"><stop offset="0" stop-color="#805a25"/><stop offset="1" stop-color="#65481d"/></radialGradient><radialGradient cx="216.39288" cy="189.14933" r="0.86243" gradientUnits="userSpaceOnUse" id="color-5"><stop offset="0" stop-color="#805a25"/><stop offset="1" stop-color="#65481d"/></radialGradient><radialGradient cx="208.98005" cy="192.62303" r="1.08388" gradientUnits="userSpaceOnUse" id="color-6"><stop offset="0" stop-color="#805a25"/><stop offset="1" stop-color="#65481d"/></radialGradient><radialGradient cx="215.33208" cy="192.72185" r="0.60922" gradientUnits="userSpaceOnUse" id="color-7"><stop offset="0" stop-color="#805a25"/><stop offset="1" stop-color="#65481d"/></radialGradient><radialGradient cx="210.20375" cy="187.97286" r="0.60922" gradientUnits="userSpaceOnUse" id="color-8"><stop offset="0" stop-color="#805a25"/><stop offset="1" stop-color="#65481d"/></radialGradient><radialGradient cx="213.31664" cy="188.91004" r="0.79208" gradientUnits="userSpaceOnUse" id="color-9"><stop offset="0" stop-color="#805a25"/><stop offset="1" stop-color="#65481d"/></radialGradient><radialGradient cx="212.55212" cy="192.25616" r="0.81234" gradientUnits="userSpaceOnUse" id="color-10"><stop offset="0" stop-color="#805a25"/><stop offset="1" stop-color="#65481d"/></radialGradient></defs><g transform="translate(-168.38422,-158.41376)"><g data-paper-data="{&quot;isPaintingLayer&quot;:true}" fill-rule="nonzero" stroke-linejoin="miter" stroke-miterlimit="10" stroke-dasharray="" stroke-dashoffset="0" style="mix-blend-mode: normal"><path d="M309.86579,193.59206c0,3.44827 -5.91779,6.24418 -13.21293,6.24418h-113.30726c-7.29666,0 -13.21138,-2.79663 -13.21138,-6.24418v-27.18484c0,-3.44827 5.91472,-6.24346 13.21138,-6.24346h113.30572c7.29975,0 13.21293,2.79519 13.21293,6.24346v27.18484z" fill="#4c95cc" stroke="#2f5c7f" stroke-width="3.5" stroke-linecap="butt"/><text transform="translate(205.45451,178.98055) scale(0.37563,0.37563)" font-size="40" xml:space="preserve" fill="#ffffff" fill-rule="nonzero" stroke="none" stroke-width="1" stroke-linecap="butt" stroke-linejoin="miter" stroke-miterlimit="10" stroke-dasharray="" stroke-dashoffset="0" font-family="Pixel" font-weight="normal" text-anchor="start" style="mix-blend-mode: normal"><tspan x="0" dy="0">Cursor</tspan></text><text transform="translate(221.09543,194.97415) scale(0.32398,0.32398)" font-size="40" xml:space="preserve" fill="#ffffff" fill-rule="nonzero" stroke="none" stroke-width="1" stroke-linecap="butt" stroke-linejoin="miter" stroke-miterlimit="10" stroke-dasharray="" stroke-dashoffset="0" font-family="Pixel" font-weight="normal" text-anchor="start" style="mix-blend-mode: normal"><tspan x="0" dy="0">25</tspan></text><g stroke-width="0.5"><path d="M212.02195,182.86605c0.63409,0.15903 1.28277,0.30762 1.93524,0.32194c0.25533,0.08403 0.5048,0.18381 0.7469,0.29848c0.12653,0.11075 0.241,0.21843 0.30403,0.25619c0.59911,0.35885 1.29108,0.85507 1.84607,1.38744c0.49763,0.58251 0.8974,1.2616 1.16662,2.01835c0.15843,0.58659 0.2641,1.21006 0.35992,1.70908c0.00956,0.13179 0.015,0.26327 0.01642,0.39425c-0.04731,0.11404 -0.12695,0.25361 -0.13969,0.31576c-0.05411,0.26398 0.01494,0.53827 -0.02126,0.80025c-0.05241,0.37933 -0.30936,0.74838 -0.29823,1.11977c0.00166,0.0553 0.01044,0.10629 0.02534,0.15299c-0.0252,0.06511 -0.05144,0.12976 -0.07871,0.19395c-0.05795,0.07443 -0.09782,0.1622 -0.11527,0.25583c-0.11416,0.23939 -0.24288,0.47156 -0.3854,0.6951c-0.01319,0.01947 -0.0258,0.0393 -0.03969,0.05827c-0.43524,0.59425 -1.04995,1.004 -1.59805,1.49064c-0.25365,0.22522 -0.49271,0.56031 -0.84021,0.66638c-0.79043,0.24127 -1.50905,0.51988 -2.31581,0.73469c-0.08113,0.00824 -0.16217,0.01492 -0.24308,0.02004c-0.12145,-0.02188 -0.24998,-0.07525 -0.35149,-0.07357c-0.40917,0.00674 -0.89015,0.01386 -1.33875,-0.04397c-0.34439,-0.07052 -0.6811,-0.16893 -1.00693,-0.29336c-0.48726,-0.22338 -0.88194,-0.51129 -1.34906,-0.82144c-0.06809,-0.04521 -0.2201,-0.11955 -0.3662,-0.15525c-0.05252,-0.04164 -0.10441,-0.08412 -0.15565,-0.12742c-0.29452,-0.41208 -0.69559,-0.72469 -1.01976,-1.12056c-0.47267,-0.57719 -0.6789,-1.40038 -0.89297,-2.10806c-0.09301,-0.30748 -0.24623,-0.59459 -0.32169,-0.90182c-0.0189,-0.15093 -0.03231,-0.30158 -0.04043,-0.45175c0.00117,-0.01387 0.00259,-0.02781 0.00427,-0.04182c0.07043,-0.58883 0.08045,-1.19723 0.16103,-1.78879c0.09569,-0.4017 0.22948,-0.79186 0.39842,-1.16537c0.17968,-0.22687 0.39863,-0.4315 0.53301,-0.69303c0.17599,-0.20975 0.28417,-0.45702 0.34402,-0.72568c0.02734,-0.03364 0.05502,-0.06698 0.08305,-0.10007c0.16207,-0.13585 0.34167,-0.24864 0.52057,-0.40717c0.70456,-0.62436 0.70407,-0.80715 1.70186,-1.20506c0.57239,-0.22829 1.19948,-0.4318 1.81191,-0.60388c0.32157,-0.0449 0.64217,-0.06492 0.9596,-0.06137z" fill="url(#color-1)" stroke="#000000" stroke-linecap="butt"/><path d="M208.06074,188.8641c0.12313,0.4601 -0.14405,0.93132 -0.59675,1.05246c-0.4527,0.12114 -0.91948,-0.15366 -1.04262,-0.61378c-0.12313,-0.4601 0.14405,-0.93132 0.59674,-1.05246c0.4527,-0.12114 0.91949,0.15366 1.04263,0.61378z" fill="url(#color-2)" stroke="#000000" stroke-linecap="butt"/><path d="M209.99834,185.13285c0.11325,0.42319 -0.1325,0.85659 -0.54886,0.96801c-0.41637,0.11141 -0.84571,-0.14134 -0.95895,-0.56453c-0.11325,-0.42319 0.13249,-0.85658 0.54886,-0.968c0.41637,-0.11141 0.84572,0.14133 0.95896,0.56453z" fill="url(#color-3)" stroke="#000000" stroke-linecap="butt"/><path d="M215.23357,185.35094c0.15474,0.57826 -0.18102,1.17047 -0.74996,1.32271c-0.56893,0.15223 -1.15559,-0.19312 -1.31033,-0.77139c-0.15474,-0.57826 0.18102,-1.17047 0.74997,-1.32271c0.56893,-0.15223 1.15559,0.19312 1.31033,0.77139z" fill="url(#color-4)" stroke="#000000" stroke-linecap="butt"/><path d="M217.21256,188.92999c0.12313,0.4601 -0.14405,0.93132 -0.59675,1.05246c-0.4527,0.12114 -0.91949,-0.15365 -1.04262,-0.61378c-0.12313,-0.4601 0.14405,-0.93132 0.59674,-1.05246c0.4527,-0.12114 0.9195,0.15366 1.04264,0.61378z" fill="url(#color-5)" stroke="#000000" stroke-linecap="butt"/><path d="M210.0102,192.34737c0.15474,0.57826 -0.18102,1.17047 -0.74997,1.32271c-0.56893,0.15223 -1.1556,-0.19312 -1.31033,-0.77139c-0.15474,-0.57826 0.18102,-1.17047 0.74997,-1.32271c0.56893,-0.15223 1.1556,0.19311 1.31033,0.77139z" fill="url(#color-6)" stroke="#000000" stroke-linecap="butt"/><path d="M215.91109,192.56692c0.08699,0.32503 -0.10175,0.65788 -0.42153,0.74344c-0.31979,0.08557 -0.64952,-0.10854 -0.7365,-0.43357c-0.08699,-0.32503 0.10175,-0.65788 0.42153,-0.74344c0.31979,-0.08557 0.64952,0.10854 0.7365,0.43357z" fill="url(#color-7)" stroke="#000000" stroke-linecap="butt"/><path d="M210.78276,187.81793c0.08699,0.32503 -0.10175,0.65788 -0.42153,0.74344c-0.31979,0.08557 -0.64952,-0.10853 -0.7365,-0.43357c-0.08699,-0.32503 0.10175,-0.65788 0.42153,-0.74345c0.31979,-0.08557 0.64952,0.10854 0.7365,0.43357z" fill="url(#color-8)" stroke="#000000" stroke-linecap="butt"/><path d="M214.06946,188.70858c0.11308,0.42259 -0.1323,0.85535 -0.54807,0.96662c-0.41578,0.11126 -0.84449,-0.14113 -0.95758,-0.56371c-0.11308,-0.42259 0.1323,-0.85535 0.54806,-0.96662c0.41578,-0.11126 0.84449,0.14113 0.95758,0.56371z" fill="url(#color-9)" stroke="#000000" stroke-linecap="butt"/><path d="M214.53312,191.0248l0.72236,0.23652l0.74873,-0.20035l1.60892,0.65837" fill="none" stroke="#b17d33" stroke-linecap="round"/><path d="M215.79221,187.16328l-0.13068,-0.59543l0.55327,-1.4662" fill="none" stroke="#b17d33" stroke-linecap="round"/><path d="M211.92656,185.24622l-0.49826,-0.89826l0.08815,-1.1698" fill="none" stroke="#b17d33" stroke-linecap="round"/><path d="M211.38723,184.30163l-0.30018,1.34117" fill="none" stroke="#b17d33" stroke-linecap="round"/><path d="M206.90615,186.18848l1.52683,0.56571l0.25724,0.53292l0.43537,0.34198" fill="none" stroke="#b17d33" stroke-linecap="round"/><path d="M206.47785,191.97682l1.57166,-1.19425l0.15667,-0.27117l0.48661,-0.21618l1.12008,0.33069" fill="none" stroke="#b17d33" stroke-linecap="round"/><path d="M210.97284,193.78278l0.20902,0.45986l-0.30583,0.9988" fill="none" stroke="#b17d33" stroke-linecap="round"/><path d="M212.80558,187.24611l-0.05198,-0.30131l0.35968,-0.58339" fill="none" stroke="#b17d33" stroke-linecap="round"/><path d="M212.52043,189.5002l-0.58979,0.47302l-0.46362,-0.01922" fill="none" stroke="#b17d33" stroke-linecap="round"/><path d="M213.30494,191.98779c0.11308,0.563 -0.1323,1.13958 -0.54806,1.2878c-0.41578,0.14821 -0.8445,-0.18802 -0.95758,-0.75103c-0.11308,-0.563 0.1323,-1.13958 0.54808,-1.2878c0.41578,-0.14821 0.84449,0.18802 0.95758,0.75103z" fill="url(#color-10)" stroke="#000000" stroke-linecap="butt"/></g><text transform="translate(263.31548,185.41014) scale(0.30019,0.30019)" font-size="40" xml:space="preserve" fill="#ffffff" fill-rule="nonzero" stroke="none" stroke-width="1" stroke-linecap="butt" stroke-linejoin="miter" stroke-miterlimit="10" stroke-dasharray="" stroke-dashoffset="0" font-family="Pixel" font-weight="normal" text-anchor="start" style="mix-blend-mode: normal"><tspan x="0" dy="0">+1 CPC</tspan></text><g stroke-width="2" stroke-linecap="round"><path d="M182.48425,190.14215l0.58801,-21.02086l16.31689,17.34589l-7.64397,0.29401l1.91099,6.61495l-3.52798,1.91099l-2.20498,-7.20296z" fill="none" stroke="#4c4c4c"/><path d="M181.14636,188.66689l0.588,-21.02086l16.31689,17.34588l-7.64396,0.29401l1.91099,6.61496l-3.52798,1.91098l-2.20498,-7.20296z" fill="#ffffff" stroke="#808080"/></g></g></g></svg>